<?xml version="1.0" standalone="no"?><!DOCTYPE svg PUBLIC "-//W3C//DTD SVG 1.1//EN" "http://www.w3.org/Graphics/SVG/1.1/DTD/svg11.dtd"><svg t="1772075692552" class="icon" viewBox="0 0 1066 1024" version="1.1" xmlns="http://www.w3.org/2000/svg" p-id="4845" width="37.4765625" height="36" xmlns:xlink="http://www.w3.org/1999/xlink"><path d="M362.657823 4.157241c-42.451299 12.714057-66.044835 76.412339-100.475186 107.173531-3.285176 2.7732-6.570352 5.034425-9.898192 7.338315l9.898192 11.391454 213.621764 254.622466c20.735006 21.033659 33.449064 16.468544 36.776905-13.226033l18.857763-340.421021c-49.064316 0-125.007343-39.678099-168.781246-26.878712zM262.182637 157.408564l-21.204317-27.774669c-38.654148 29.182602-124.026057 34.217027-149.454172 70.695279-27.859998 38.355495 0.426646 107.258861-14.164654 151.032763l184.823143 44.755189 165.49607 40.14741c29.694577 3.626493 36.819569-6.869004 20.265696-32.425113L262.182637 157.451229z m162.680205 317.595449L262.182637 423.93446 75.48225 365.995903C64.176125 409.769805-0.887424 461.351334 0.008533 505.637212c0.938622 46.931085 66.556811 86.182537 76.924314 133.241615l185.24979-66.428817 165.49607-59.303825c26.878712-14.377978 25.47078-26.708054-2.815865-38.142172z m566.756843-105.808264l-275.314808 82.769368-71.676565 21.460305c-27.859998 11.860765-27.859998 24.617487 0 37.886184l71.676565 26.878712L988.377174 639.988107c17.407166-44.712524 77.777606-88.102445 78.246917-131.919012 0.426646-47.144408-63.655617-93.734175-75.004406-138.91601z m-171.1278-247.796126c-34.899661-25.129463-67.410103-85.329245-104.187008-109.989396a59.730471 59.730471 0 0 0-16.041898-8.234273c-45.736475-15.487258-110.842689 31.059845-158.456407 28.755956l13.226033 342.2556c4.223798 29.225266 16.98052 32.851759 37.715526 10.495497l123.556746-142.798491 104.187008-120.484893z m-177.31417 315.504882l73.127162-17.364501 274.376187-65.703519c-15.103276-45.608481 6.655681-121.850161-19.796385-157.859102-27.305358-38.39816-108.922781-37.84352-146.168996-66.599476L716.347542 275.632233l-97.147345 131.407036c-14.164655 25.598773-6.143706 35.62496 24.020182 29.865236z" fill="#FFB52E" p-id="4846"></path><path d="M529.092515 511.99424L981.294847 655.091384c-11.732771 53.202784 5.63173 109.434756-25.300121 159.693681-30.889187 50.21626-109.093439 47.315066-154.019287 81.788081-44.968512 34.473015-56.658618 104.954971-107.642842 123.172765-51.026888 18.217794-105.296288-28.585297-161.016285-28.585297s-114.255859 45.821804-167.117325 27.092035c-52.904132-18.772434-68.39139-90.704987-112.335951-126.201953-43.944561-35.496966-119.418278-34.473015-147.918245-81.276106-28.542632-46.845755-9.386217-107.429519-20.607013-156.707157L529.092515 511.99424z" fill="#E60012" p-id="4847"></path></svg>